<svg width="64" height="64" viewBox="0 0 324 324" fill="none" xmlns="http://www.w3.org/2000/svg">
  <rect width="324" height="324" rx="72" fill="#081526" />
  <path
    d="M55.617 55.68H162.07c35.336 0 66.699 17.331 86.039 43.937h63.488c-8.027-19.25-19.828-36.93-35.027-52.117C245.988 16.914 205.324.066 162.07.066H0C0 30.781 24.898 55.68 55.617 55.68Z"
    fill="#F3F7FF"
  />
  <path
    d="M268.383 162.004H162.066c0 30.836 24.996 55.832 55.828 55.832h34.609c-18.757 30.273-52.277 50.488-90.433 50.488-58.629 0-106.32-47.699-106.32-106.321H.133c0 43.258 16.844 83.922 47.43 114.504 30.582 30.59 71.25 47.43 114.503 47.43 43.258 0 83.918-16.844 114.5-47.43 30.59-30.582 47.43-71.25 47.43-114.503Z"
    fill="#F3F7FF"
  />
  <path
    d="M30.176 133.211h25.202v-28.402c0-14.899-12.078-26.977-26.98-26.977H0v25.203c0 16.664 13.512 30.176 30.176 30.176Z"
    fill="#F3F7FF"
  />
</svg>
