<svg xmlns="http://www.w3.org/2000/svg" xmlns:xlink="http://www.w3.org/1999/xlink" width="432" zoomAndPan="magnify" viewBox="0 0 324 323.999988" height="432" preserveAspectRatio="xMidYMid meet" version="1.0"><path fill="#ffffff" d="M 55.617188 55.679688 L 162.070312 55.679688 C 197.40625 55.679688 228.769531 73.011719 248.109375 99.617188 L 311.597656 99.617188 C 303.570312 80.367188 291.769531 62.6875 276.570312 47.5 C 245.988281 16.914062 205.324219 0.0664062 162.070312 0.0664062 L 0 0.0664062 C 0 30.78125 24.898438 55.679688 55.617188 55.679688 Z M 55.617188 55.679688 " fill-opacity="1" fill-rule="nonzero"/><path fill="#ffffff" d="M 268.382812 162.003906 L 162.066406 162.003906 C 162.066406 192.839844 187.0625 217.835938 217.894531 217.835938 L 252.503906 217.835938 C 233.746094 248.109375 200.226562 268.324219 162.070312 268.324219 C 103.441406 268.324219 55.75 220.625 55.75 162.003906 L 0.132812 162.003906 C 0.132812 205.261719 16.976562 245.925781 47.5625 276.507812 C 78.144531 307.097656 118.8125 323.9375 162.066406 323.9375 C 205.324219 323.9375 245.984375 307.09375 276.566406 276.507812 C 307.15625 245.925781 323.996094 205.257812 323.996094 162.003906 Z M 268.382812 162.003906 " fill-opacity="1" fill-rule="nonzero"/><path fill="#ffffff" d="M 30.175781 133.210938 L 55.378906 133.210938 L 55.378906 104.808594 C 55.378906 89.910156 43.300781 77.832031 28.398438 77.832031 L 0 77.832031 L 0 103.035156 C 0 119.699219 13.511719 133.210938 30.175781 133.210938 Z M 30.175781 133.210938 " fill-opacity="1" fill-rule="nonzero"/><path fill="#ffffff" d="M 55.617188 55.679688 L 162.070312 55.679688 C 197.40625 55.679688 228.769531 73.011719 248.109375 99.617188 L 311.597656 99.617188 C 303.570312 80.367188 291.769531 62.6875 276.570312 47.5 C 245.988281 16.914062 205.324219 0.0664062 162.070312 0.0664062 L 0 0.0664062 C 0 30.78125 24.898438 55.679688 55.617188 55.679688 Z M 55.617188 55.679688 " fill-opacity="1" fill-rule="nonzero"/><path fill="#ffffff" d="M 268.382812 162.003906 L 162.066406 162.003906 C 162.066406 192.839844 187.0625 217.835938 217.894531 217.835938 L 252.503906 217.835938 C 233.746094 248.109375 200.226562 268.324219 162.070312 268.324219 C 103.441406 268.324219 55.75 220.625 55.75 162.003906 L 0.132812 162.003906 C 0.132812 205.261719 16.976562 245.925781 47.5625 276.507812 C 78.144531 307.097656 118.8125 323.9375 162.066406 323.9375 C 205.324219 323.9375 245.984375 307.09375 276.566406 276.507812 C 307.15625 245.925781 323.996094 205.257812 323.996094 162.003906 Z M 268.382812 162.003906 " fill-opacity="1" fill-rule="nonzero"/><path fill="#ffffff" d="M 30.175781 133.210938 L 55.378906 133.210938 L 55.378906 104.808594 C 55.378906 89.910156 43.300781 77.832031 28.398438 77.832031 L 0 77.832031 L 0 103.035156 C 0 119.699219 13.511719 133.210938 30.175781 133.210938 Z M 30.175781 133.210938 " fill-opacity="1" fill-rule="nonzero"/></svg>