<svg width="260" height="62" viewBox="0 0 260 62" fill="none" xmlns="http://www.w3.org/2000/svg">
  <rect width="62" height="62" rx="16" fill="#0F1518"/>
  <path d="M31 10L46 18.5V43.5L31 52L16 43.5V18.5L31 10Z" fill="#D6B780"/>
  <path d="M31 20L38 24V38L31 42L24 38V24L31 20Z" fill="#0F1518"/>
  <path d="M75 21H100.8V25.1H90.5V50H85.3V25.1H75V21Z" fill="#E8E1D2"/>
  <path d="M104.8 21H110V50H104.8V21Z" fill="#E8E1D2"/>
  <path d="M114.7 35.5C114.7 26.9 121.1 20.3 130.1 20.3C137.4 20.3 142.8 24.7 144.5 31.3H139C137.7 27.8 134.6 25.4 130.1 25.4C124 25.4 119.9 30 119.9 35.5C119.9 41 124 45.6 130.1 45.6C134.6 45.6 137.7 43.2 139 39.7H144.5C142.8 46.3 137.4 50.7 130.1 50.7C121.1 50.7 114.7 44.1 114.7 35.5Z" fill="#E8E1D2"/>
  <path d="M148.9 21H170.5V25.1H154.1V33.1H168.8V37.1H154.1V45.9H170.5V50H148.9V21Z" fill="#E8E1D2"/>
  <path d="M175 21H180.2V45.9H194.5V50H175V21Z" fill="#E8E1D2"/>
  <path d="M198 21H219.6V25.1H203.2V33.1H217.9V37.1H203.2V45.9H219.6V50H198V21Z" fill="#E8E1D2"/>
  <path d="M223.9 21H229.1L243.8 42V21H249V50H243.8L229.1 29V50H223.9V21Z" fill="#E8E1D2"/>
</svg>
